<?xml version="1.0" encoding="UTF-8" standalone="no"?>
<svg
   xmlns:svg="http://www.w3.org/2000/svg"
   xmlns="http://www.w3.org/2000/svg"
   version="1.1"
   width="589.77374"
   height="431.38089"
   id="svg3165">
  <defs
     id="defs3167" />
  <g
     transform="translate(-65.113142,-310.95748)"
     id="layer1">
    <path
       d="m 377.70745,311.97224 c -50.89776,0.56976 -105.0949,17.47883 -152.67398,53.78821 123.68002,-56.34373 217.42965,-18.88146 238.87604,9.47361 l -52.30062,0 c -108.91684,0 -155.20758,18.95663 -168.64602,79.86023 l -10.49144,57.07656 c -11.49987,67.75592 34.68752,85.26253 115.32758,85.26253 l 85.7323,0 c -93.18592,59.5037 -210.01988,29.1944 -262.05116,-19.49528 46.41914,102.46536 286.95502,150.35643 378.47483,-43.21848 l -155.25766,0 c -39.78605,0 -68.12547,-2.33004 -62.87035,-32.02238 l 6.10695,-31.08285 c 7.49121,-31.98167 30.27173,-40.0084 77.04163,-40.0084 l 144.29646,-0.0782 C 538.22844,355.53534 462.53704,311.02276 377.70745,311.97237 z m 71.48272,339.40594 -0.23475,1.4093 2.97518,0 -1.09612,6.8899 1.95736,0 1.09612,-6.8899 3.05348,0 0.23476,-1.4093 -7.98603,0 z m 8.92556,0 -1.4093,8.2992 2.03565,0 0.86124,-6.57672 1.331,6.57672 2.11395,0 3.36666,-6.49843 -1.17442,6.49843 1.87907,0 1.331,-8.2992 -2.8186,0 -3.36665,6.42014 -1.33101,-6.42014 -2.81859,0 z m 63.34011,31.94409 c -3.09419,0 -6.11948,2.3363 -6.65502,5.5589 -0.5324,3.26017 1.6849,5.63719 4.77596,5.63719 3.06287,0 6.03806,-2.37702 6.57672,-5.63719 0.53554,-3.2226 -1.63791,-5.5589 -4.69766,-5.5589 z m 57.93781,0.86124 -9.55191,57.15486 16.67669,0 9.55191,-57.15486 -16.67669,0 z m -58.0944,0.0782 c 2.53987,0 4.19658,1.96362 3.75813,4.61936 -0.44784,2.71212 -2.78101,4.69766 -5.32401,4.69766 -2.57119,0 -4.28114,-1.98554 -3.83642,-4.69766 0.44471,-2.65574 2.83112,-4.61936 5.4023,-4.61936 z m -24.50612,0.23475 -2.42713,15.34569 -19.73017,0 c -14.29654,0 -24.53431,3.7456 -26.69837,14.40616 l -2.34883,13.62321 c -1.55962,10.45386 6.87738,13.31004 21.13947,13.31004 l 35.78051,0 9.23874,-56.6851 -14.95422,0 z m 22.079,1.17442 -1.09612,6.49843 1.01783,0 0.46976,-2.8186 1.09612,0 1.25271,2.8186 1.09612,0 -1.331,-2.8186 c 0.97085,-0.11901 1.76319,-0.63888 1.95736,-1.80077 0.20995,-1.27463 -0.42279,-1.87906 -1.95736,-1.87906 l -2.50542,0 z m 0.86124,0.86124 1.331,0 c 0.6796,0 1.39051,0.13479 1.25271,0.93953 -0.16586,0.9959 -0.89255,1.09612 -1.72247,1.09612 l -1.17442,0 0.31318,-2.03565 z m -169.74212,12.84027 c -16.20066,0 -32.55165,0.7391 -35.31077,14.64104 l -2.662,14.09298 c -1.6066,11.35268 12.77766,13.3852 30.06504,13.15345 17.51288,-0.29439 31.43048,-0.36642 34.37122,-13.15345 l 2.662,-13.23175 c 2.03566,-13.42904 -9.95277,-15.50227 -29.12549,-15.50227 z m 273.16893,0.15684 c -12.5772,0 -24.81304,3.10985 -26.77666,15.1891 l -2.03565,10.9612 c -2.32065,13.42592 7.8357,15.50228 20.59141,15.50228 l 33.50997,0 1.4876,-8.2209 -32.02239,0 c -5.53384,0 -7.40038,-4.11202 -6.65502,-7.51626 l 40.32159,0 1.95735,-11.0395 c 0,0 3.84582,-14.87592 -14.01468,-14.87592 l -16.36352,0 z m -493.5675,0.31317 -1.64418,8.76897 29.28208,0 c 4.68513,0 10.11876,2.07636 9.00385,6.02866 l -0.31318,2.19224 -27.08984,0 c -9.17923,0 -14.12117,1.31222 -15.58057,8.3775 l -1.09612,6.26354 c -1.26211,8.24596 5.12358,9.7085 13.62321,9.7085 l 41.57429,0 4.38448,-23.56659 c 0.96459,-5.77813 1.06481,-10.16261 -3.44495,-13.8581 -4.91375,-4.03059 -19.02552,-3.91472 -19.02552,-3.91472 l -29.67355,0 z m 60.7564,0 -7.51626,41.33941 16.5984,0 5.87208,-32.25726 16.28522,0 c 5.18935,0 7.97036,2.50855 7.43796,4.93254 l -4.93254,27.40302 16.83328,0 5.08913,-28.26426 c 0.62636,-3.4794 -0.0283,-5.76873 -2.58371,-8.53408 -4.40954,-4.81667 -12.1826,-4.61937 -21.21777,-4.61937 l -31.86579,0 z m 63.41841,0 -7.51626,41.33941 16.6767,0 5.87207,-32.25726 16.28522,0 c 5.18935,0 7.97037,2.50855 7.43797,4.93254 l -4.93255,27.40302 16.75499,0 5.08913,-28.26426 c 0.62949,-3.4794 0.0471,-5.76873 -2.50542,-8.53408 -4.4158,-4.81667 -12.18259,-4.61937 -21.21776,-4.61937 l -31.94409,0 z m 133.25698,0 -7.51625,41.33941 16.67669,0 5.87207,-32.25726 16.28523,0 c 5.18621,0 7.97036,2.50855 7.43796,4.93254 l -4.93255,27.40302 16.75499,0 5.08913,-28.26426 c 0.62949,-3.4794 0.0471,-5.76873 -2.50542,-8.53408 -4.41266,-4.81667 -12.18573,-4.61937 -21.21776,-4.61937 l -31.94409,0 z m 129.42054,0 -1.64419,8.76897 29.28209,0 c 4.68826,0 10.11249,2.07636 9.00384,6.02866 l -0.31317,2.19224 -27.08984,0 c -9.1761,0 -14.12117,1.31222 -15.58058,8.3775 l -1.09612,6.26354 c -1.26523,8.24596 5.12672,9.7085 13.62322,9.7085 l 41.88747,0 3.99301,-23.56659 c 0.96145,-5.77813 1.13683,-10.16261 -3.36666,-13.8581 -4.91375,-4.03059 -19.02552,-3.91472 -19.02552,-3.91472 l -29.67355,0 z m -417.073946,0.0782 c -19.028655,0 -28.730889,3.60154 -31.08285,15.11081 l -1.879064,10.72632 c -2.007467,12.80269 6.348104,15.42399 20.434821,15.42399 l 30.299909,0 1.25271,-8.69067 -23.879774,0 c -6.955669,0 -11.878817,-1.51578 -10.961207,-7.12479 l 1.174415,-7.20308 c 1.305949,-6.04119 7.178024,-9.55191 15.345686,-9.55191 l 22.07901,0 1.48759,-8.69067 -24.271246,0 z m 378.944606,8.53408 14.17127,0 -4.38448,23.72319 -14.32787,0 c -8.2209,0 -12.77137,-1.81017 -11.58756,-9.08215 l 1.17442,-5.95036 c 1.37485,-5.70923 7.03396,-8.69068 14.95422,-8.69068 z m -130.20348,0.0782 c 9.95591,0 15.58997,0.90195 14.40616,7.51626 l -1.72248,9.39532 c -1.23705,6.46711 -7.65405,6.9682 -17.38134,6.9682 -8.07371,0.0689 -16.40736,-0.93014 -15.2674,-7.20308 l 1.87907,-9.7868 c 1.42495,-6.32618 8.87544,-6.8899 18.08599,-6.8899 z m 273.63869,0 9.08215,0 c 10.81714,0 6.8116,8.22091 6.8116,8.22091 l -25.05418,0 c 0.75789,-4.0212 3.37918,-8.22091 9.16043,-8.22091 z m -477.0474,16.20718 19.65188,0 -1.64418,8.14261 -19.41699,0 c -3.23826,0 -5.72175,-0.76415 -5.40231,-2.89689 0.0251,-0.18164 0.43218,-2.08889 0.46976,-2.27053 0.44158,-1.99181 3.10359,-2.97519 6.34184,-2.97519 z m 386.85233,0 19.65188,0 -1.64418,8.14261 -19.417,0 c -3.24138,0 -5.72175,-0.76415 -5.4023,-2.89689 0.0251,-0.18164 0.42905,-2.08889 0.46976,-2.27053 0.44471,-1.99181 3.10672,-2.97519 6.34184,-2.97519 z"
       id="path96"
       style="fill:#000000;fill-opacity:1;fill-rule:nonzero;stroke:none" />
  </g>
</svg>
